<?xml version="1.0" standalone="no"?>
<svg xmlns="http://www.w3.org/2000/svg" xmlns:xlink="http://www.w3.org/1999/xlink" width="480pt" height="755pt" viewBox="0.00 0.00 479.53 755">
<g id="graph0" class="graph" transform="translate(33.573206506782185,718.5279872388126) scale(0.9201876506248758)" data-name="G">

<polygon fill="#2e3e56" stroke="none" points="-4,4 -4,-751 475.53,-751 475.53,4 -4,4"/>
<g id="clust1" class="cluster" data-name="clusterERC20Token">

<path fill="#445773" stroke="#445773" d="M20,-93C20,-93 451.53,-93 451.53,-93 457.53,-93 463.53,-99 463.53,-105 463.53,-105 463.53,-590 463.53,-590 463.53,-596 457.53,-602 451.53,-602 451.53,-602 20,-602 20,-602 14,-602 8,-596 8,-590 8,-590 8,-105 8,-105 8,-99 14,-93 20,-93" style=""/>
<text text-anchor="middle" x="235.76" y="-585.4" font-family="Times,serif" font-size="14.00" fill="#f0f0f0" style="">ERC20Token</text>
</g>
<g id="clust3" class="cluster" data-name="cluster_01">

<polygon fill="#2e3e56" stroke="black" points="41.47,-610 41.47,-739 387.23,-739 387.23,-610 41.47,-610" style=""/>
<text text-anchor="middle" x="214.35" y="-722.4" font-family="Times,serif" font-size="14.00" style="">Legend</text>
</g>
<g id="clust2" class="cluster" data-name="cluster_to">

<path fill="#3b4b63" stroke="#e8726d" stroke-dasharray="5,2" d="M327.49,-8C327.49,-8 376.97,-8 376.97,-8 382.97,-8 388.97,-14 388.97,-20 388.97,-20 388.97,-73 388.97,-73 388.97,-79 382.97,-85 376.97,-85 376.97,-85 327.49,-85 327.49,-85 321.49,-85 315.49,-79 315.49,-73 315.49,-73 315.49,-20 315.49,-20 315.49,-14 321.49,-8 327.49,-8" style=""/>
<text text-anchor="middle" x="352.23" y="-68.4" font-family="Times,serif" font-size="14.00" fill="#f0f0f0" style="">_to</text>
</g>
<!-- ERC20Token.&lt;Constructor&gt; -->
<g id="node1" class="node" pointer-events="visible" data-name="ERC20Token.&lt;Constructor&gt;">

<ellipse fill="#ff9797" stroke="#ff9797" stroke-width="3" cx="114.47" cy="-551" rx="67.55" ry="18"/>
<text text-anchor="middle" x="114.47" y="-546.8" font-family="Times,serif" font-size="14.00">&lt;Constructor&gt;</text>
</g>
<!-- ERC20Token.mint -->
<g id="node2" class="node" pointer-events="visible" data-name="ERC20Token.mint">

<ellipse fill="#ffbdb9" stroke="brown" stroke-width="3" cx="114.47" cy="-497" rx="28.99" ry="18"/>
<text text-anchor="middle" x="114.47" y="-492.8" font-family="Times,serif" font-size="14.00">mint</text>
</g>
<!-- ERC20Token._mint -->
<g id="node11" class="node" pointer-events="visible" data-name="ERC20Token._mint">

<ellipse fill="#edad56" stroke="#edad56" stroke-width="3" cx="352.23" cy="-497" rx="33.64" ry="18"/>
<text text-anchor="middle" x="352.23" y="-492.8" font-family="Times,serif" font-size="14.00">_mint</text>
</g>
<!-- ERC20Token.mint&#45;&gt;ERC20Token._mint -->
<g id="edge1" class="edge" data-name="ERC20Token.mint-&gt;ERC20Token._mint">

<path fill="none" stroke="#1bc6a6" stroke-width="2" d="M143.44,-497C184.23,-497 260.4,-497 308.32,-497"/>
<polygon fill="#1bc6a6" stroke="#1bc6a6" stroke-width="2" points="308.39,-500.5 318.39,-497 308.39,-493.5 308.39,-500.5"/>
</g>
<!-- ERC20Token.airDrop -->
<g id="node3" class="node" pointer-events="visible" data-name="ERC20Token.airDrop">

<ellipse fill="#ffbdb9" stroke="#ffbdb9" stroke-width="3" cx="114.47" cy="-443" rx="41.14" ry="18"/>
<text text-anchor="middle" x="114.47" y="-438.8" font-family="Times,serif" font-size="14.00">airDrop</text>
</g>
<!-- ERC20Token.airDrop&#45;&gt;ERC20Token._mint -->
<g id="edge2" class="edge" data-name="ERC20Token.airDrop-&gt;ERC20Token._mint">

<path fill="none" stroke="#1bc6a6" stroke-width="2" d="M151.28,-451.2C194.3,-461.06 266.28,-477.54 311.13,-487.81"/>
<polygon fill="#1bc6a6" stroke="#1bc6a6" stroke-width="2" points="310.56,-491.27 321.09,-490.1 312.12,-484.45 310.56,-491.27"/>
</g>
<!-- ERC20Token.withdraw -->
<g id="node4" class="node" pointer-events="visible" data-name="ERC20Token.withdraw">

<ellipse fill="#ffbdb9" stroke="#ffbdb9" stroke-width="3" cx="114.47" cy="-389" rx="47.52" ry="18"/>
<text text-anchor="middle" x="114.47" y="-384.8" font-family="Times,serif" font-size="14.00">withdraw</text>
</g>
<!-- ERC20Token.getContractBalance -->
<g id="node8" class="node" pointer-events="visible" data-name="ERC20Token.getContractBalance">

<ellipse fill="#edad56" stroke="#edad56" stroke-width="3" cx="352.23" cy="-389" rx="87.37" ry="18"/>
<text text-anchor="middle" x="352.23" y="-384.8" font-family="Times,serif" font-size="14.00">getContractBalance</text>
</g>
<!-- ERC20Token.withdraw&#45;&gt;ERC20Token.getContractBalance --><g id="edge3" class="edge" data-name="ERC20Token.withdraw-&gt;ERC20Token.getContractBalance">

<path fill="none" stroke="#1bc6a6" stroke-width="2" d="M159.81,-383.59C188.1,-382.39 225.79,-382 260.25,-382.41"/>
<polygon fill="#1bc6a6" stroke="#1bc6a6" stroke-width="2" points="260.3,-385.91 270.34,-382.55 260.4,-378.91 260.3,-385.91"/>
</g>

<!-- ERC20Token.withdraw&#45;&gt;ERC20Token.getContractBalance -->
<g id="edge6" class="edge" data-name="ERC20Token.withdraw-&gt;ERC20Token.getContractBalance">

<path fill="none" stroke="#1bc6a6" stroke-width="2" d="M159.81,-394.41C188.1,-395.61 225.79,-396 260.25,-395.59"/>
<polygon fill="#1bc6a6" stroke="#1bc6a6" stroke-width="2" points="260.4,-399.09 270.34,-395.45 260.3,-392.09 260.4,-399.09"/>
</g>
<!-- ERC20Token.payable -->
<g id="node12" class="node" pointer-events="visible" data-name="ERC20Token.payable">

<ellipse fill="#edad56" stroke="#edad56" stroke-width="3" cx="352.23" cy="-443" rx="41.13" ry="18"/>
<text text-anchor="middle" x="352.23" y="-438.8" font-family="Times,serif" font-size="14.00">payable</text>
</g>
<!-- ERC20Token.withdraw&#45;&gt;ERC20Token.payable -->
<g id="edge4" class="edge" data-name="ERC20Token.withdraw-&gt;ERC20Token.payable">

<path fill="none" stroke="#1bc6a6" stroke-width="2" d="M155.46,-398.16C197.02,-407.68 261.97,-422.55 305.53,-432.53"/>
<polygon fill="#1bc6a6" stroke="#1bc6a6" stroke-width="2" points="304.77,-435.95 315.3,-434.77 306.33,-429.13 304.77,-435.95"/>
</g>
<!-- _to.send -->
<g id="node18" class="node" pointer-events="visible" data-name="_to.send">

<ellipse fill="#edad56" stroke="#edad56" stroke-width="3" cx="352.23" cy="-34" rx="28.98" ry="18"/>
<text text-anchor="middle" x="352.23" y="-29.8" font-family="Times,serif" font-size="14.00">send</text>
</g>
<!-- ERC20Token.withdraw&#45;&gt;_to.send -->
<g id="edge5" class="edge" data-name="ERC20Token.withdraw-&gt;_to.send">

<path fill="none" stroke="white" stroke-width="2" d="M161.79,-386.94C180.3,-383.67 200.2,-376.64 212.94,-362 293.25,-269.66 179.4,-189.71 248.94,-89 264.6,-66.31 292.73,-52.16 315.52,-43.91"/>
<polygon fill="white" stroke="white" stroke-width="2" points="316.89,-47.15 325.24,-40.63 314.64,-40.51 316.89,-47.15"/>
</g>
<!-- ERC20Token.addToBlackList -->
<g id="node5" class="node" pointer-events="visible" data-name="ERC20Token.addToBlackList">

<ellipse fill="#ffbdb9" stroke="#ffbdb9" stroke-width="3" cx="114.47" cy="-335" rx="73.01" ry="18"/>
<text text-anchor="middle" x="114.47" y="-330.8" font-family="Times,serif" font-size="14.00">addToBlackList</text>
</g>
<!-- ERC20Token._isBlackListUser -->
<g id="node13" class="node" pointer-events="visible" data-name="ERC20Token._isBlackListUser">

<ellipse fill="#edad56" stroke="#edad56" stroke-width="3" cx="352.23" cy="-281" rx="78.18" ry="18"/>
<text text-anchor="middle" x="352.23" y="-276.8" font-family="Times,serif" font-size="14.00">_isBlackListUser</text>
</g>
<!-- ERC20Token.addToBlackList&#45;&gt;ERC20Token._isBlackListUser -->
<g id="edge7" class="edge" data-name="ERC20Token.addToBlackList-&gt;ERC20Token._isBlackListUser">

<path fill="none" stroke="#1bc6a6" stroke-width="2" d="M168.67,-322.81C203.43,-314.85 249.06,-304.4 286,-295.94"/>
<polygon fill="#1bc6a6" stroke="#1bc6a6" stroke-width="2" points="287.21,-299.25 296.17,-293.61 285.64,-292.43 287.21,-299.25"/>
</g>
<!-- ERC20Token._addToBlackList -->
<g id="node14" class="node" pointer-events="visible" data-name="ERC20Token._addToBlackList">

<ellipse fill="#edad56" stroke="#edad56" stroke-width="3" cx="352.23" cy="-335" rx="78.17" ry="18"/>
<text text-anchor="middle" x="352.23" y="-330.8" font-family="Times,serif" font-size="14.00">_addToBlackList</text>
</g>
<!-- ERC20Token.addToBlackList&#45;&gt;ERC20Token._addToBlackList -->
<g id="edge8" class="edge" data-name="ERC20Token.addToBlackList-&gt;ERC20Token._addToBlackList">

<path fill="none" stroke="#1bc6a6" stroke-width="2" d="M187.81,-335C211.84,-335 238.85,-335 263.89,-335"/>
<polygon fill="#1bc6a6" stroke="#1bc6a6" stroke-width="2" points="264.12,-338.5 274.12,-335 264.12,-331.5 264.12,-338.5"/>
</g>
<!-- ERC20Token.removeFromBlackList -->
<g id="node6" class="node" pointer-events="visible" data-name="ERC20Token.removeFromBlackList">

<ellipse fill="#ffbdb9" stroke="#ffbdb9" stroke-width="3" cx="114.47" cy="-281" rx="98.44" ry="18"/>
<text text-anchor="middle" x="114.47" y="-276.8" font-family="Times,serif" font-size="14.00">removeFromBlackList</text>
</g>
<!-- ERC20Token.removeFromBlackList&#45;&gt;ERC20Token._isBlackListUser -->
<g id="edge9" class="edge" data-name="ERC20Token.removeFromBlackList-&gt;ERC20Token._isBlackListUser">

<path fill="none" stroke="#1bc6a6" stroke-width="2" d="M213.06,-281C229.85,-281 247.2,-281 263.7,-281"/>
<polygon fill="#1bc6a6" stroke="#1bc6a6" stroke-width="2" points="263.85,-284.5 273.85,-281 263.85,-277.5 263.85,-284.5"/>
</g>
<!-- ERC20Token._removeFromBlackList -->
<g id="node15" class="node" pointer-events="visible" data-name="ERC20Token._removeFromBlackList">

<ellipse fill="#edad56" stroke="#edad56" stroke-width="3" cx="352.23" cy="-227" rx="103.09" ry="18"/>
<text text-anchor="middle" x="352.23" y="-222.8" font-family="Times,serif" font-size="14.00">_removeFromBlackList</text>
</g>
<!-- ERC20Token.removeFromBlackList&#45;&gt;ERC20Token._removeFromBlackList -->
<g id="edge10" class="edge" data-name="ERC20Token.removeFromBlackList-&gt;ERC20Token._removeFromBlackList">

<path fill="none" stroke="#1bc6a6" stroke-width="2" d="M176.8,-266.95C208.08,-259.79 246.32,-251.03 279.02,-243.54"/>
<polygon fill="#1bc6a6" stroke="#1bc6a6" stroke-width="2" points="280.01,-246.9 288.98,-241.26 278.45,-240.08 280.01,-246.9"/>
</g>
<!-- ERC20Token.updateTokenPrice -->
<g id="node7" class="node" pointer-events="visible" data-name="ERC20Token.updateTokenPrice">

<ellipse fill="#ffbdb9" stroke="#ffbdb9" stroke-width="3" cx="114.47" cy="-227" rx="81.08" ry="18"/>
<text text-anchor="middle" x="114.47" y="-222.8" font-family="Times,serif" font-size="14.00">updateTokenPrice</text>
</g>
<!-- ERC20Token.pause -->
<g id="node9" class="node" pointer-events="visible" data-name="ERC20Token.pause">

<ellipse fill="#ffbdb9" stroke="#ffbdb9" stroke-width="3" cx="114.47" cy="-173" rx="33.05" ry="18"/>
<text text-anchor="middle" x="114.47" y="-168.8" font-family="Times,serif" font-size="14.00">pause</text>
</g>
<!-- ERC20Token._pause -->
<g id="node16" class="node" pointer-events="visible" data-name="ERC20Token._pause">

<ellipse fill="#edad56" stroke="#edad56" stroke-width="3" cx="352.23" cy="-173" rx="37.71" ry="18"/>
<text text-anchor="middle" x="352.23" y="-168.8" font-family="Times,serif" font-size="14.00">_pause</text>
</g>
<!-- ERC20Token.pause&#45;&gt;ERC20Token._pause -->
<g id="edge11" class="edge" data-name="ERC20Token.pause-&gt;ERC20Token._pause">

<path fill="none" stroke="#1bc6a6" stroke-width="2" d="M147.76,-173C188.21,-173 257.83,-173 304.2,-173"/>
<polygon fill="#1bc6a6" stroke="#1bc6a6" stroke-width="2" points="304.3,-176.5 314.3,-173 304.3,-169.5 304.3,-176.5"/>
</g>
<!-- ERC20Token.unpause -->
<g id="node10" class="node" pointer-events="visible" data-name="ERC20Token.unpause">

<ellipse fill="#ffbdb9" stroke="#ffbdb9" stroke-width="3" cx="114.47" cy="-119" rx="42.86" ry="18"/>
<text text-anchor="middle" x="114.47" y="-114.8" font-family="Times,serif" font-size="14.00">unpause</text>
</g>
<!-- ERC20Token._unpause -->
<g id="node17" class="node" pointer-events="visible" data-name="ERC20Token._unpause">

<ellipse fill="#edad56" stroke="#edad56" stroke-width="3" cx="352.23" cy="-119" rx="47.52" ry="18"/>
<text text-anchor="middle" x="352.23" y="-114.8" font-family="Times,serif" font-size="14.00">_unpause</text>
</g>
<!-- ERC20Token.unpause&#45;&gt;ERC20Token._unpause -->
<g id="edge12" class="edge" data-name="ERC20Token.unpause-&gt;ERC20Token._unpause">

<path fill="none" stroke="#1bc6a6" stroke-width="2" d="M157.35,-119C195.49,-119 252.13,-119 294.36,-119"/>
<polygon fill="#1bc6a6" stroke="#1bc6a6" stroke-width="2" points="294.49,-122.5 304.49,-119 294.49,-115.5 294.49,-122.5"/>
</g>
<!-- key -->
<g id="node19" class="node" pointer-events="visible" data-name="key">

<polygon fill="#edad56" stroke="none" stroke-width="3" points="179.47,-706 49.47,-706 49.47,-618 179.47,-618 179.47,-706"/>
<text text-anchor="start" x="99.11" y="-687.4" font-family="Times,serif" font-size="14.00">Internal Call</text>
<text text-anchor="start" x="95.22" y="-667.4" font-family="Times,serif" font-size="14.00">External Call</text>
<text text-anchor="start" x="72.67" y="-647.4" font-family="Times,serif" font-size="14.00">Defined Contract</text>
<text text-anchor="start" x="59.07" y="-627.4" font-family="Times,serif" font-size="14.00">Undefined Contract</text>
</g>
<!-- key2 -->
<g id="node20" class="node" pointer-events="visible" data-name="key2">

<polygon fill="#edad56" stroke="none" stroke-width="3" points="379.23,-706 325.23,-706 325.23,-618 379.23,-618 379.23,-706"/>
<text text-anchor="start" x="342.23" y="-687.4" font-family="Times,serif" font-size="14.00">   </text>
<text text-anchor="start" x="342.23" y="-667.4" font-family="Times,serif" font-size="14.00">   </text>
<polygon fill="#445773" stroke="none" points="340.23,-642 340.23,-662 365.23,-662 365.23,-642 340.23,-642"/>
<text text-anchor="start" x="342.23" y="-647.4" font-family="Times,serif" font-size="14.00">   </text>
<polygon fill="none" stroke="#e8726d" points="342.23,-624 342.23,-640 363.23,-640 363.23,-624 342.23,-624"/>
</g>
<!-- key&#45;&gt;key2 --><g id="edge13" class="edge" data-name="key-&gt;key2">

<path fill="none" stroke="rgb(27, 198, 166)" stroke-width="2" d="M172.47,-692C243.11,-692 263.26,-692 329.16,-692"/>
<polygon fill="#1bc6a6" stroke="#1bc6a6" stroke-width="2" points="329.23,-695.5 339.23,-692 329.23,-688.5 329.23,-695.5"/>
</g>

<!-- key&#45;&gt;key2 -->
<g id="edge14" class="edge" data-name="key-&gt;key2">

<path fill="none" stroke="white" stroke-width="2" d="M172.47,-672C243.11,-672 263.26,-672 329.16,-672"/>
<polygon fill="white" stroke="white" stroke-width="2" points="329.23,-675.5 339.23,-672 329.23,-668.5 329.23,-675.5"/>
</g>
</g>
</svg>