<?xml version="1.0" standalone="no"?>
<svg xmlns="http://www.w3.org/2000/svg" xmlns:xlink="http://www.w3.org/1999/xlink" width="573pt" height="260pt" viewBox="0.00 0.00 572.95 260.00">
<g id="graph0" class="graph" transform="translate(4,256) scale(1)" data-name="G">

<polygon fill="white" stroke="none" points="-4,4 -4,-256 568.95,-256 568.95,4 -4,4" style=""/>
<!-- ERC20Token -->
<g id="node1" class="node" pointer-events="visible" data-name="ERC20Token">

<ellipse fill="none" stroke="black" cx="257.36" cy="-234" rx="64.29" ry="18" style=""/>
<text text-anchor="middle" x="257.36" y="-229.8" font-family="Times,serif" font-size="14.00" style="">ERC20Token</text>
</g>
<!-- ERC20 -->
<g id="node2" class="node" pointer-events="visible" data-name="ERC20">

<ellipse fill="none" stroke="black" cx="257.36" cy="-162" rx="39.45" ry="18" style=""/>
<text text-anchor="middle" x="257.36" y="-157.8" font-family="Times,serif" font-size="14.00" style="">ERC20</text>
</g>
<!-- ERC20Token&#45;&gt;ERC20 -->
<g id="edge1" class="edge" data-name="ERC20Token-&gt;ERC20">

<path fill="none" stroke="black" d="M257.36,-215.7C257.36,-207.98 257.36,-198.71 257.36,-190.11" style=""/>
<polygon fill="black" stroke="black" points="260.86,-190.1 257.36,-180.1 253.86,-190.1 260.86,-190.1" style=""/>
</g>
<!-- Pausable -->
<g id="node3" class="node" pointer-events="visible" data-name="Pausable">

<ellipse fill="none" stroke="black" cx="45.36" cy="-162" rx="45.23" ry="18" style=""/>
<text text-anchor="middle" x="45.36" y="-157.8" font-family="Times,serif" font-size="14.00" style="">Pausable</text>
</g>
<!-- ERC20Token&#45;&gt;Pausable -->
<g id="edge2" class="edge" data-name="ERC20Token-&gt;Pausable">

<path fill="none" stroke="black" d="M217.49,-219.83C180.82,-207.73 126.58,-189.82 88.83,-177.35" style=""/>
<polygon fill="black" stroke="black" points="89.72,-173.96 79.12,-174.15 87.52,-180.61 89.72,-173.96" style=""/>
</g>
<!-- Ownable -->
<g id="node4" class="node" pointer-events="visible" data-name="Ownable">

<ellipse fill="none" stroke="black" cx="154.36" cy="-162" rx="45.79" ry="18" style=""/>
<text text-anchor="middle" x="154.36" y="-157.8" font-family="Times,serif" font-size="14.00" style="">Ownable</text>
</g>
<!-- ERC20Token&#45;&gt;Ownable -->
<g id="edge3" class="edge" data-name="ERC20Token-&gt;Ownable">

<path fill="none" stroke="black" d="M233.99,-217.12C219.37,-207.18 200.38,-194.27 184.61,-183.56" style=""/>
<polygon fill="black" stroke="black" points="186.47,-180.59 176.24,-177.86 182.54,-186.38 186.47,-180.59" style=""/>
</g>
<!-- IERC20Token -->
<g id="node5" class="node" pointer-events="visible" data-name="IERC20Token">

<ellipse fill="none" stroke="black" cx="382.36" cy="-162" rx="67.22" ry="18" style=""/>
<text text-anchor="middle" x="382.36" y="-157.8" font-family="Times,serif" font-size="14.00" style="">IERC20Token</text>
</g>
<!-- ERC20Token&#45;&gt;IERC20Token -->
<g id="edge4" class="edge" data-name="ERC20Token-&gt;IERC20Token">

<path fill="none" stroke="black" d="M284.8,-217.64C302.66,-207.63 326.19,-194.46 345.66,-183.56" style=""/>
<polygon fill="black" stroke="black" points="347.55,-186.51 354.56,-178.57 344.13,-180.4 347.55,-186.51" style=""/>
</g>
<!-- BlackList -->
<g id="node6" class="node" pointer-events="visible" data-name="BlackList">

<ellipse fill="none" stroke="black" cx="516.36" cy="-162" rx="48.67" ry="18" style=""/>
<text text-anchor="middle" x="516.36" y="-157.8" font-family="Times,serif" font-size="14.00" style="">BlackList</text>
</g>
<!-- ERC20Token&#45;&gt;BlackList -->
<g id="edge5" class="edge" data-name="ERC20Token-&gt;BlackList">

<path fill="none" stroke="black" d="M303.36,-221.25C344.17,-210.74 405.34,-194.76 458.36,-180 462.12,-178.95 466.01,-177.85 469.92,-176.73" style=""/>
<polygon fill="black" stroke="black" points="470.95,-180.08 479.59,-173.94 469.01,-173.35 470.95,-180.08" style=""/>
</g>
<!-- Context -->
<g id="node7" class="node" pointer-events="visible" data-name="Context">

<ellipse fill="none" stroke="black" cx="154.36" cy="-90" rx="41.73" ry="18" style=""/>
<text text-anchor="middle" x="154.36" y="-85.8" font-family="Times,serif" font-size="14.00" style="">Context</text>
</g>
<!-- ERC20&#45;&gt;Context -->
<g id="edge6" class="edge" data-name="ERC20-&gt;Context">

<path fill="none" stroke="black" d="M236.02,-146.5C220.97,-136.27 200.61,-122.43 183.98,-111.13" style=""/>
<polygon fill="black" stroke="black" points="185.92,-108.21 175.68,-105.49 181.98,-114 185.92,-108.21" style=""/>
</g>
<!-- IERC20 -->
<g id="node8" class="node" pointer-events="visible" data-name="IERC20">

<ellipse fill="none" stroke="black" cx="293.36" cy="-18" rx="42.88" ry="18" style=""/>
<text text-anchor="middle" x="293.36" y="-13.8" font-family="Times,serif" font-size="14.00" style="">IERC20</text>
</g>
<!-- ERC20&#45;&gt;IERC20 -->
<g id="edge7" class="edge" data-name="ERC20-&gt;IERC20">

<path fill="none" stroke="black" d="M255.05,-143.84C253.21,-125.59 252.01,-96.09 259.36,-72 262.4,-62.07 267.86,-52.21 273.53,-43.74" style=""/>
<polygon fill="black" stroke="black" points="276.48,-45.64 279.43,-35.46 270.78,-41.58 276.48,-45.64" style=""/>
</g>
<!-- IERC20Metadata -->
<g id="node9" class="node" pointer-events="visible" data-name="IERC20Metadata">

<ellipse fill="none" stroke="black" cx="347.36" cy="-90" rx="78.73" ry="18" style=""/>
<text text-anchor="middle" x="347.36" y="-85.8" font-family="Times,serif" font-size="14.00" style="">IERC20Metadata</text>
</g>
<!-- ERC20&#45;&gt;IERC20Metadata -->
<g id="edge8" class="edge" data-name="ERC20-&gt;IERC20Metadata">

<path fill="none" stroke="black" d="M276.45,-146.15C288.5,-136.78 304.31,-124.49 317.94,-113.88" style=""/>
<polygon fill="black" stroke="black" points="320.35,-116.44 326.1,-107.54 316.06,-110.92 320.35,-116.44" style=""/>
</g>
<!-- Pausable&#45;&gt;Context -->
<g id="edge10" class="edge" data-name="Pausable-&gt;Context">

<path fill="none" stroke="black" d="M68.21,-146.33C84.16,-136.08 105.64,-122.29 123.17,-111.04" style=""/>
<polygon fill="black" stroke="black" points="125.39,-113.76 131.92,-105.42 121.61,-107.87 125.39,-113.76" style=""/>
</g>
<!-- Ownable&#45;&gt;Context -->
<g id="edge11" class="edge" data-name="Ownable-&gt;Context">

<path fill="none" stroke="black" d="M154.36,-143.7C154.36,-135.98 154.36,-126.71 154.36,-118.11" style=""/>
<polygon fill="black" stroke="black" points="157.86,-118.1 154.36,-108.1 150.86,-118.1 157.86,-118.1" style=""/>
</g>
<!-- IERC20Metadata&#45;&gt;IERC20 -->
<g id="edge9" class="edge" data-name="IERC20Metadata-&gt;IERC20">

<path fill="none" stroke="black" d="M334.29,-72.05C327.63,-63.42 319.41,-52.76 312.09,-43.27" style=""/>
<polygon fill="black" stroke="black" points="314.82,-41.09 305.94,-35.31 309.28,-45.36 314.82,-41.09" style=""/>
</g>
</g>
</svg>