<?xml version="1.0" standalone="no"?>
<svg xmlns="http://www.w3.org/2000/svg" xmlns:xlink="http://www.w3.org/1999/xlink" width="480pt" height="863pt" viewBox="0.00 0.00 479.53 863.00">
<g id="graph0" class="graph" transform="translate(8.21249507815594,844.852129457206) scale(1.000000000000001)" data-name="G">

<polygon fill="#2e3e56" stroke="none" points="-4,4 -4,-859 475.53,-859 475.53,4 -4,4" style=""/>
<g id="clust1" class="cluster" data-name="clusterERC20Token">

<path fill="#445773" stroke="#445773" d="M20,-93C20,-93 451.53,-93 451.53,-93 457.53,-93 463.53,-99 463.53,-105 463.53,-105 463.53,-698 463.53,-698 463.53,-704 457.53,-710 451.53,-710 451.53,-710 20,-710 20,-710 14,-710 8,-704 8,-698 8,-698 8,-105 8,-105 8,-99 14,-93 20,-93" style=""/>
<text text-anchor="middle" x="235.76" y="-693.4" font-family="Times,serif" font-size="14.00" fill="#f0f0f0" style="">ERC20Token</text>
</g>
<g id="clust2" class="cluster" data-name="cluster_to">

<path fill="#3b4b63" stroke="#e8726d" stroke-dasharray="5,2" d="M327.49,-8C327.49,-8 376.97,-8 376.97,-8 382.97,-8 388.97,-14 388.97,-20 388.97,-20 388.97,-73 388.97,-73 388.97,-79 382.97,-85 376.97,-85 376.97,-85 327.49,-85 327.49,-85 321.49,-85 315.49,-79 315.49,-73 315.49,-73 315.49,-20 315.49,-20 315.49,-14 321.49,-8 327.49,-8" style=""/>
<text text-anchor="middle" x="352.23" y="-68.4" font-family="Times,serif" font-size="14.00" fill="#f0f0f0" style="">_to</text>
</g>
<g id="clust3" class="cluster" data-name="cluster_01">

<polygon fill="#2e3e56" stroke="black" points="41.47,-718 41.47,-847 387.23,-847 387.23,-718 41.47,-718" style=""/>
<text text-anchor="middle" x="214.35" y="-830.4" font-family="Times,serif" font-size="14.00" style="">Legend</text>
</g>
<!-- ERC20Token.&lt;Constructor&gt; -->
<g id="node1" class="node" pointer-events="visible" data-name="ERC20Token.&lt;Constructor&gt;">

<ellipse fill="#ff9797" stroke="#ff9797" stroke-width="3" cx="114.47" cy="-659" rx="67.55" ry="18" style=""/>
<text text-anchor="middle" x="114.47" y="-654.8" font-family="Times,serif" font-size="14.00" style="">&lt;Constructor&gt;</text>
</g>
<!-- ERC20Token.mint -->
<g id="node2" class="node" pointer-events="visible" data-name="ERC20Token.mint">

<ellipse fill="#ffbdb9" stroke="brown" stroke-width="3" cx="114.47" cy="-605" rx="28.99" ry="18" style=""/>
<text text-anchor="middle" x="114.47" y="-600.8" font-family="Times,serif" font-size="14.00" style="">mint</text>
</g>
<!-- ERC20Token._isBlackListUser -->
<g id="node11" class="node" pointer-events="visible" data-name="ERC20Token._isBlackListUser">

<ellipse fill="#edad56" stroke="#edad56" stroke-width="3" cx="352.23" cy="-551" rx="78.18" ry="18" style=""/>
<text text-anchor="middle" x="352.23" y="-546.8" font-family="Times,serif" font-size="14.00" style="">_isBlackListUser</text>
</g>
<!-- ERC20Token.mint&#45;&gt;ERC20Token._isBlackListUser -->
<g id="edge1" class="edge" data-name="ERC20Token.mint-&gt;ERC20Token._isBlackListUser">

<path fill="none" stroke="#1bc6a6" stroke-width="2" d="M142.97,-598.7C176.69,-590.98 235.05,-577.61 281.43,-566.99" style=""/>
<polygon fill="#1bc6a6" stroke="#1bc6a6" stroke-width="2" points="281.94,-570.46 290.9,-564.82 280.38,-563.64 281.94,-570.46" style=""/>
</g>
<!-- ERC20Token._mint -->
<g id="node12" class="node" pointer-events="visible" data-name="ERC20Token._mint">

<ellipse fill="#edad56" stroke="#edad56" stroke-width="3" cx="352.23" cy="-605" rx="33.64" ry="18" style=""/>
<text text-anchor="middle" x="352.23" y="-600.8" font-family="Times,serif" font-size="14.00" style="">_mint</text>
</g>
<!-- ERC20Token.mint&#45;&gt;ERC20Token._mint -->
<g id="edge2" class="edge" data-name="ERC20Token.mint-&gt;ERC20Token._mint">

<path fill="none" stroke="#1bc6a6" stroke-width="2" d="M144.85,-605C184.82,-605 256.78,-605 304.28,-605" style=""/>
<polygon fill="#1bc6a6" stroke="#1bc6a6" stroke-width="2" points="304.25,-608.5 314.25,-605 304.25,-601.5 304.25,-608.5" style=""/>
</g>
<!-- ERC20Token.ERC20Minted -->
<g id="node13" class="node" pointer-events="visible" data-name="ERC20Token.ERC20Minted">

<ellipse fill="#edad56" stroke="#edad56" stroke-width="3" cx="352.23" cy="-659" rx="67.24" ry="18" style=""/>
<text text-anchor="middle" x="352.23" y="-654.8" font-family="Times,serif" font-size="14.00" style="">ERC20Minted</text>
</g>
<!-- ERC20Token.mint&#45;&gt;ERC20Token.ERC20Minted -->
<g id="edge3" class="edge" data-name="ERC20Token.mint-&gt;ERC20Token.ERC20Minted">

<path fill="none" stroke="#1bc6a6" stroke-width="2" d="M142.97,-611.3C177.8,-619.28 238.93,-633.28 285.98,-644.05" style=""/>
<polygon fill="#1bc6a6" stroke="#1bc6a6" stroke-width="2" points="285.06,-647.43 295.59,-646.25 286.62,-640.61 285.06,-647.43" style=""/>
</g>
<!-- ERC20Token.airDrop -->
<g id="node3" class="node" pointer-events="visible" data-name="ERC20Token.airDrop">

<ellipse fill="#ffbdb9" stroke="#ffbdb9" stroke-width="3" cx="114.47" cy="-551" rx="41.14" ry="18" style=""/>
<text text-anchor="middle" x="114.47" y="-546.8" font-family="Times,serif" font-size="14.00" style="">airDrop</text>
</g>
<!-- ERC20Token.airDrop&#45;&gt;ERC20Token._isBlackListUser -->
<g id="edge4" class="edge" data-name="ERC20Token.airDrop-&gt;ERC20Token._isBlackListUser">

<path fill="none" stroke="#1bc6a6" stroke-width="2" d="M157.07,-551C185.57,-551 224.48,-551 259.98,-551" style=""/>
<polygon fill="#1bc6a6" stroke="#1bc6a6" stroke-width="2" points="259.86,-554.5 269.86,-551 259.86,-547.5 259.86,-554.5" style=""/>
</g>
<!-- ERC20Token.airDrop&#45;&gt;ERC20Token._mint -->
<g id="edge5" class="edge" data-name="ERC20Token.airDrop-&gt;ERC20Token._mint">

<path fill="none" stroke="#1bc6a6" stroke-width="2" d="M152.57,-559.5C194.46,-569.09 262.6,-584.7 307.17,-594.91" style=""/>
<polygon fill="#1bc6a6" stroke="#1bc6a6" stroke-width="2" points="306.15,-598.27 316.68,-597.09 307.72,-591.44 306.15,-598.27" style=""/>
</g>
<!-- ERC20Token.airDrop&#45;&gt;ERC20Token.ERC20Minted -->
<g id="edge6" class="edge" data-name="ERC20Token.airDrop-&gt;ERC20Token.ERC20Minted">

<path fill="none" stroke="#1bc6a6" stroke-width="2" d="M155.75,-555.58C174.5,-559.28 196.29,-565.95 212.94,-578 236.3,-594.91 225.47,-615.23 248.94,-632 257.69,-638.26 267.79,-643.06 278.17,-646.75" style=""/>
<polygon fill="#1bc6a6" stroke="#1bc6a6" stroke-width="2" points="276.94,-650.04 287.53,-649.69 279.03,-643.36 276.94,-650.04" style=""/>
</g>
<!-- ERC20Token.withdraw -->
<g id="node4" class="node" pointer-events="visible" data-name="ERC20Token.withdraw">

<ellipse fill="#ffbdb9" stroke="#ffbdb9" stroke-width="3" cx="114.47" cy="-335" rx="47.52" ry="18" style=""/>
<text text-anchor="middle" x="114.47" y="-330.8" font-family="Times,serif" font-size="14.00" style="">withdraw</text>
</g>
<!-- ERC20Token.getContractBalance -->
<g id="node8" class="node" pointer-events="visible" data-name="ERC20Token.getContractBalance">

<ellipse fill="#edad56" stroke="#edad56" stroke-width="3" cx="352.23" cy="-335" rx="87.37" ry="18" style=""/>
<text text-anchor="middle" x="352.23" y="-330.8" font-family="Times,serif" font-size="14.00" style="">getContractBalance</text>
</g>
<!-- ERC20Token.withdraw&#45;&gt;ERC20Token.getContractBalance -->
<g id="edge7" class="edge" data-name="ERC20Token.withdraw-&gt;ERC20Token.getContractBalance">

<path fill="none" stroke="#1bc6a6" stroke-width="2" d="M161.49,-329.52C188.34,-328.42 223.24,-328.04 255.78,-328.36" style=""/>
<polygon fill="#1bc6a6" stroke="#1bc6a6" stroke-width="2" points="255.51,-331.86 265.56,-328.49 255.6,-324.86 255.51,-331.86" style=""/>
</g>
<!-- ERC20Token.withdraw&#45;&gt;ERC20Token.getContractBalance -->
<g id="edge10" class="edge" data-name="ERC20Token.withdraw-&gt;ERC20Token.getContractBalance">

<path fill="none" stroke="#1bc6a6" stroke-width="2" d="M161.49,-340.48C188.34,-341.58 223.24,-341.96 255.78,-341.64" style=""/>
<polygon fill="#1bc6a6" stroke="#1bc6a6" stroke-width="2" points="255.6,-345.14 265.56,-341.51 255.51,-338.14 255.6,-345.14" style=""/>
</g>
<!-- ERC20Token.payable -->
<g id="node14" class="node" pointer-events="visible" data-name="ERC20Token.payable">

<ellipse fill="#edad56" stroke="#edad56" stroke-width="3" cx="352.23" cy="-389" rx="41.13" ry="18" style=""/>
<text text-anchor="middle" x="352.23" y="-384.8" font-family="Times,serif" font-size="14.00" style="">payable</text>
</g>
<!-- ERC20Token.withdraw&#45;&gt;ERC20Token.payable -->
<g id="edge8" class="edge" data-name="ERC20Token.withdraw-&gt;ERC20Token.payable">

<path fill="none" stroke="#1bc6a6" stroke-width="2" d="M157.07,-344.53C197.33,-353.75 258.37,-367.73 301.25,-377.55" style=""/>
<polygon fill="#1bc6a6" stroke="#1bc6a6" stroke-width="2" points="300.44,-380.96 310.97,-379.78 302.01,-374.13 300.44,-380.96" style=""/>
</g>
<!-- ERC20Token.EthersWithdraw -->
<g id="node15" class="node" pointer-events="visible" data-name="ERC20Token.EthersWithdraw">

<ellipse fill="#edad56" stroke="#edad56" stroke-width="3" cx="352.23" cy="-281" rx="74.14" ry="18" style=""/>
<text text-anchor="middle" x="352.23" y="-276.8" font-family="Times,serif" font-size="14.00" style="">EthersWithdraw</text>
</g>
<!-- ERC20Token.withdraw&#45;&gt;ERC20Token.EthersWithdraw -->
<g id="edge11" class="edge" data-name="ERC20Token.withdraw-&gt;ERC20Token.EthersWithdraw">

<path fill="none" stroke="#1bc6a6" stroke-width="2" d="M157.07,-325.47C191.86,-317.5 242.18,-305.98 282.87,-296.66" style=""/>
<polygon fill="#1bc6a6" stroke="#1bc6a6" stroke-width="2" points="283.52,-300.1 292.49,-294.45 281.96,-293.28 283.52,-300.1" style=""/>
</g>
<!-- _to.send -->
<g id="node21" class="node" pointer-events="visible" data-name="_to.send">

<ellipse fill="#edad56" stroke="#edad56" stroke-width="3" cx="352.23" cy="-34" rx="28.98" ry="18" style=""/>
<text text-anchor="middle" x="352.23" y="-29.8" font-family="Times,serif" font-size="14.00" style="">send</text>
</g>
<!-- ERC20Token.withdraw&#45;&gt;_to.send -->
<g id="edge9" class="edge" data-name="ERC20Token.withdraw-&gt;_to.send">

<path fill="none" stroke="white" stroke-width="2" d="M142.94,-319.34C165.28,-305.16 195.79,-282.2 212.94,-254 251.92,-189.86 203.74,-148.93 248.94,-89 264.64,-68.18 290.58,-54.36 312.42,-45.78" style=""/>
<polygon fill="white" stroke="white" stroke-width="2" points="313.31,-49.18 321.51,-42.46 310.92,-42.6 313.31,-49.18" style=""/>
</g>
<!-- ERC20Token.addToBlackList -->
<g id="node5" class="node" pointer-events="visible" data-name="ERC20Token.addToBlackList">

<ellipse fill="#ffbdb9" stroke="#ffbdb9" stroke-width="3" cx="114.47" cy="-497" rx="73.01" ry="18" style=""/>
<text text-anchor="middle" x="114.47" y="-492.8" font-family="Times,serif" font-size="14.00" style="">addToBlackList</text>
</g>
<!-- ERC20Token.addToBlackList&#45;&gt;ERC20Token._isBlackListUser -->
<g id="edge12" class="edge" data-name="ERC20Token.addToBlackList-&gt;ERC20Token._isBlackListUser">

<path fill="none" stroke="#1bc6a6" stroke-width="2" d="M170.74,-509.66C203.71,-517.21 245.89,-526.87 281.18,-534.96" style=""/>
<polygon fill="#1bc6a6" stroke="#1bc6a6" stroke-width="2" points="280.36,-538.36 290.89,-537.18 281.92,-531.53 280.36,-538.36" style=""/>
</g>
<!-- ERC20Token._addToBlackList -->
<g id="node16" class="node" pointer-events="visible" data-name="ERC20Token._addToBlackList">

<ellipse fill="#edad56" stroke="#edad56" stroke-width="3" cx="352.23" cy="-497" rx="78.17" ry="18" style=""/>
<text text-anchor="middle" x="352.23" y="-492.8" font-family="Times,serif" font-size="14.00" style="">_addToBlackList</text>
</g>
<!-- ERC20Token.addToBlackList&#45;&gt;ERC20Token._addToBlackList -->
<g id="edge13" class="edge" data-name="ERC20Token.addToBlackList-&gt;ERC20Token._addToBlackList">

<path fill="none" stroke="#1bc6a6" stroke-width="2" d="M188.77,-497C211.24,-497 236.24,-497 259.77,-497" style=""/>
<polygon fill="#1bc6a6" stroke="#1bc6a6" stroke-width="2" points="259.63,-500.5 269.63,-497 259.63,-493.5 259.63,-500.5" style=""/>
</g>
<!-- ERC20Token.removeFromBlackList -->
<g id="node6" class="node" pointer-events="visible" data-name="ERC20Token.removeFromBlackList">

<ellipse fill="#ffbdb9" stroke="#ffbdb9" stroke-width="3" cx="114.47" cy="-443" rx="98.44" ry="18" style=""/>
<text text-anchor="middle" x="114.47" y="-438.8" font-family="Times,serif" font-size="14.00" style="">removeFromBlackList</text>
</g>
<!-- ERC20Token.removeFromBlackList&#45;&gt;ERC20Token._isBlackListUser -->
<g id="edge14" class="edge" data-name="ERC20Token.removeFromBlackList-&gt;ERC20Token._isBlackListUser">

<path fill="none" stroke="#1bc6a6" stroke-width="2" d="M186.9,-456.32C196.15,-459.86 205.11,-464.34 212.94,-470 236.3,-486.91 225.47,-507.23 248.94,-524 256.1,-529.12 264.16,-533.26 272.54,-536.63" style=""/>
<polygon fill="#1bc6a6" stroke="#1bc6a6" stroke-width="2" points="271.08,-539.82 281.68,-539.86 273.42,-533.23 271.08,-539.82" style=""/>
</g>
<!-- ERC20Token._removeFromBlackList -->
<g id="node17" class="node" pointer-events="visible" data-name="ERC20Token._removeFromBlackList">

<ellipse fill="#edad56" stroke="#edad56" stroke-width="3" cx="352.23" cy="-443" rx="103.09" ry="18" style=""/>
<text text-anchor="middle" x="352.23" y="-438.8" font-family="Times,serif" font-size="14.00" style="">_removeFromBlackList</text>
</g>
<!-- ERC20Token.removeFromBlackList&#45;&gt;ERC20Token._removeFromBlackList -->
<g id="edge15" class="edge" data-name="ERC20Token.removeFromBlackList-&gt;ERC20Token._removeFromBlackList">

<path fill="none" stroke="#1bc6a6" stroke-width="2" d="M214.09,-443C220.94,-443 227.88,-443 234.82,-443" style=""/>
<polygon fill="#1bc6a6" stroke="#1bc6a6" stroke-width="2" points="234.67,-446.5 244.67,-443 234.67,-439.5 234.67,-446.5" style=""/>
</g>
<!-- ERC20Token.updateTokenPrice -->
<g id="node7" class="node" pointer-events="visible" data-name="ERC20Token.updateTokenPrice">

<ellipse fill="#ffbdb9" stroke="#ffbdb9" stroke-width="3" cx="114.47" cy="-227" rx="81.08" ry="18" style=""/>
<text text-anchor="middle" x="114.47" y="-222.8" font-family="Times,serif" font-size="14.00" style="">updateTokenPrice</text>
</g>
<!-- ERC20Token.TokenPriceUpdated -->
<g id="node18" class="node" pointer-events="visible" data-name="ERC20Token.TokenPriceUpdated">

<ellipse fill="#edad56" stroke="#edad56" stroke-width="3" cx="352.23" cy="-227" rx="88.03" ry="18" style=""/>
<text text-anchor="middle" x="352.23" y="-222.8" font-family="Times,serif" font-size="14.00" style="">TokenPriceUpdated</text>
</g>
<!-- ERC20Token.updateTokenPrice&#45;&gt;ERC20Token.TokenPriceUpdated -->
<g id="edge16" class="edge" data-name="ERC20Token.updateTokenPrice-&gt;ERC20Token.TokenPriceUpdated">

<path fill="none" stroke="#1bc6a6" stroke-width="2" d="M196.93,-227C214.07,-227 232.35,-227 250.1,-227" style=""/>
<polygon fill="#1bc6a6" stroke="#1bc6a6" stroke-width="2" points="249.89,-230.5 259.89,-227 249.89,-223.5 249.89,-230.5" style=""/>
</g>
<!-- ERC20Token.pause -->
<g id="node9" class="node" pointer-events="visible" data-name="ERC20Token.pause">

<ellipse fill="#ffbdb9" stroke="#ffbdb9" stroke-width="3" cx="114.47" cy="-173" rx="33.05" ry="18" style=""/>
<text text-anchor="middle" x="114.47" y="-168.8" font-family="Times,serif" font-size="14.00" style="">pause</text>
</g>
<!-- ERC20Token._pause -->
<g id="node19" class="node" pointer-events="visible" data-name="ERC20Token._pause">

<ellipse fill="#edad56" stroke="#edad56" stroke-width="3" cx="352.23" cy="-173" rx="37.71" ry="18" style=""/>
<text text-anchor="middle" x="352.23" y="-168.8" font-family="Times,serif" font-size="14.00" style="">_pause</text>
</g>
<!-- ERC20Token.pause&#45;&gt;ERC20Token._pause -->
<g id="edge17" class="edge" data-name="ERC20Token.pause-&gt;ERC20Token._pause">

<path fill="none" stroke="#1bc6a6" stroke-width="2" d="M149,-173C188.45,-173 254.39,-173 300.2,-173" style=""/>
<polygon fill="#1bc6a6" stroke="#1bc6a6" stroke-width="2" points="300.1,-176.5 310.1,-173 300.1,-169.5 300.1,-176.5" style=""/>
</g>
<!-- ERC20Token.unpause -->
<g id="node10" class="node" pointer-events="visible" data-name="ERC20Token.unpause">

<ellipse fill="#ffbdb9" stroke="#ffbdb9" stroke-width="3" cx="114.47" cy="-119" rx="42.86" ry="18" style=""/>
<text text-anchor="middle" x="114.47" y="-114.8" font-family="Times,serif" font-size="14.00" style="">unpause</text>
</g>
<!-- ERC20Token._unpause -->
<g id="node20" class="node" pointer-events="visible" data-name="ERC20Token._unpause">

<ellipse fill="#edad56" stroke="#edad56" stroke-width="3" cx="352.23" cy="-119" rx="47.52" ry="18" style=""/>
<text text-anchor="middle" x="352.23" y="-114.8" font-family="Times,serif" font-size="14.00" style="">_unpause</text>
</g>
<!-- ERC20Token.unpause&#45;&gt;ERC20Token._unpause -->
<g id="edge18" class="edge" data-name="ERC20Token.unpause-&gt;ERC20Token._unpause">

<path fill="none" stroke="#1bc6a6" stroke-width="2" d="M158.71,-119C195.66,-119 249.22,-119 290.47,-119" style=""/>
<polygon fill="#1bc6a6" stroke="#1bc6a6" stroke-width="2" points="290.37,-122.5 300.37,-119 290.37,-115.5 290.37,-122.5" style=""/>
</g>
<!-- key -->
<g id="node22" class="node" pointer-events="visible" data-name="key">

<polygon fill="#edad56" stroke="none" stroke-width="3" points="179.47,-814 49.47,-814 49.47,-726 179.47,-726 179.47,-814" style=""/>
<text text-anchor="start" x="99.11" y="-795.4" font-family="Times,serif" font-size="14.00" style="">Internal Call</text>
<text text-anchor="start" x="95.22" y="-775.4" font-family="Times,serif" font-size="14.00" style="">External Call</text>
<text text-anchor="start" x="72.67" y="-755.4" font-family="Times,serif" font-size="14.00" style="">Defined Contract</text>
<text text-anchor="start" x="59.07" y="-735.4" font-family="Times,serif" font-size="14.00" style="">Undefined Contract</text>
</g>
<!-- key2 -->
<g id="node23" class="node" pointer-events="visible" data-name="key2">

<polygon fill="#edad56" stroke="none" stroke-width="3" points="379.23,-814 325.23,-814 325.23,-726 379.23,-726 379.23,-814" style=""/>
<text text-anchor="start" x="342.23" y="-795.4" font-family="Times,serif" font-size="14.00" style="">   </text>
<text text-anchor="start" x="342.23" y="-775.4" font-family="Times,serif" font-size="14.00" style="">   </text>
<polygon fill="#445773" stroke="none" points="340.23,-750 340.23,-770 365.23,-770 365.23,-750 340.23,-750" style=""/>
<text text-anchor="start" x="342.23" y="-755.4" font-family="Times,serif" font-size="14.00" style="">   </text>
<polygon fill="none" stroke="#e8726d" points="342.23,-732 342.23,-748 363.23,-748 363.23,-732 342.23,-732" style=""/>
</g>
<!-- key&#45;&gt;key2 -->
<g id="edge19" class="edge" data-name="key-&gt;key2">

<path fill="none" stroke="#1bc6a6" stroke-width="2" d="M172.47,-800C242.1,-800 262.67,-800 326.36,-800" style=""/>
<polygon fill="#1bc6a6" stroke="#1bc6a6" stroke-width="2" points="326.2,-803.5 336.2,-800 326.2,-796.5 326.2,-803.5" style=""/>
</g>
<!-- key&#45;&gt;key2 -->
<g id="edge20" class="edge" data-name="key-&gt;key2">

<path fill="none" stroke="white" stroke-width="2" d="M172.47,-780C242.1,-780 262.67,-780 326.36,-780" style=""/>
<polygon fill="white" stroke="white" stroke-width="2" points="326.2,-783.5 336.2,-780 326.2,-776.5 326.2,-783.5" style=""/>
</g>
</g>
</svg>